<?xml version="1.0" encoding="UTF-8" standalone="no"?>
<!-- Created with Inkscape (http://www.inkscape.org/) -->

<svg
   xmlns:dc="http://purl.org/dc/elements/1.1/"
   xmlns:cc="http://creativecommons.org/ns#"
   xmlns:rdf="http://www.w3.org/1999/02/22-rdf-syntax-ns#"
   xmlns:svg="http://www.w3.org/2000/svg"
   xmlns="http://www.w3.org/2000/svg"
   xmlns:sodipodi="http://sodipodi.sourceforge.net/DTD/sodipodi-0.dtd"
   xmlns:inkscape="http://www.inkscape.org/namespaces/inkscape"
   width="2.0062089mm"
   height="2.0060048mm"
   viewBox="0 0 2.0062089 2.0060048"
   version="1.1"
   id="svg8"
   inkscape:version="0.92.3 (2405546, 2018-03-11)"
   sodipodi:docname="rocky-shore.svg">
  <defs
     id="defs2" />
  <sodipodi:namedview
     id="base"
     pagecolor="#ffffff"
     bordercolor="#666666"
     borderopacity="1.0"
     inkscape:pageopacity="0.0"
     inkscape:pageshadow="2"
     inkscape:zoom="63.356767"
     inkscape:cx="5.1632648"
     inkscape:cy="4.2269241"
     inkscape:document-units="mm"
     inkscape:current-layer="layer1"
     showgrid="false"
     inkscape:window-width="1863"
     inkscape:window-height="1025"
     inkscape:window-x="57"
     inkscape:window-y="27"
     inkscape:window-maximized="1"
     inkscape:snap-global="false" />
  <metadata
     id="metadata5">
    <rdf:RDF>
      <cc:Work
         rdf:about="">
        <dc:format>image/svg+xml</dc:format>
        <dc:type
           rdf:resource="http://purl.org/dc/dcmitype/StillImage" />
        <dc:title></dc:title>
      </cc:Work>
    </rdf:RDF>
  </metadata>
  <g
     inkscape:label="Layer 1"
     inkscape:groupmode="layer"
     id="layer1"
     transform="translate(-12.805251,-143.90942)">
    <path
       style="fill:none;stroke:#000000;stroke-width:0.12;stroke-linecap:butt;stroke-linejoin:miter;stroke-miterlimit:4;stroke-dasharray:none;stroke-opacity:1"
       d="m 13.229734,145.60338 c 0.114549,-0.0503 0.164952,-0.11437 0.164952,-0.11437"
       id="path1468"
       inkscape:connector-curvature="0" />
    <path
       style="fill:none;stroke:#000000;stroke-width:0.12;stroke-linecap:butt;stroke-linejoin:miter;stroke-miterlimit:4;stroke-dasharray:none;stroke-opacity:1"
       d="m 13.504653,145.6537 c 0.07789,-0.0732 0.105386,-0.16012 0.105386,-0.16012"
       id="path1470"
       inkscape:connector-curvature="0" />
    <path
       style="fill:none;stroke:#000000;stroke-width:0.12;stroke-linecap:butt;stroke-linejoin:miter;stroke-miterlimit:4;stroke-dasharray:none;stroke-opacity:1"
       d="m 13.66044,145.73146 c 0.08247,-0.0916 0.105385,-0.18298 0.105385,-0.18298"
       id="path1472"
       inkscape:connector-curvature="0" />
    <path
       style="fill:none;stroke:#000000;stroke-width:0.12;stroke-linecap:butt;stroke-linejoin:miter;stroke-miterlimit:4;stroke-dasharray:none;stroke-opacity:1"
       d="m 13.041874,145.52561 c 0.11913,-0.0503 0.178696,-0.11894 0.178696,-0.11894"
       id="path1474"
       inkscape:connector-curvature="0" />
    <path
       style="fill:none;stroke:#000000;stroke-width:0.12;stroke-linecap:butt;stroke-linejoin:miter;stroke-miterlimit:4;stroke-dasharray:none;stroke-opacity:1"
       d="m 12.899832,144.06172 c -0.03207,0.10979 -0.04582,0.12809 -0.02291,0.14182 0.02291,0.0136 0.03666,0.0182 0.09623,0.0321 0.05957,0.0137 0.06873,0.009 0.109967,0.0503 0.04124,0.0412 0.02291,0.0777 0.09164,0.0916 0.06873,0.0136 0.05498,0.0228 0.119131,0 0.06414,-0.0228 0.04124,0.009 0.06414,-0.0412 0.02291,-0.0503 0.02291,-0.009 0.02291,-0.0824 0,-0.0732 0.01374,-0.0319 -0.01833,-0.10521 -0.03207,-0.0732 -0.01833,-0.0503 -0.04582,-0.0824 -0.02749,-0.032 -0.132877,-0.0777 -0.16037,-0.0777 -0.02749,0 -0.146623,-0.0228 -0.178697,-0.0137 -0.03207,0.009 -0.01833,-0.0321 -0.0504,0.0274 z"
       id="path1495"
       inkscape:connector-curvature="0" />
    <path
       style="fill:none;stroke:#000000;stroke-width:0.12;stroke-linecap:butt;stroke-linejoin:miter;stroke-miterlimit:4;stroke-dasharray:none;stroke-opacity:1"
       d="m 13.183915,144.29045 c 0.100803,-0.10521 0.119131,-0.2333 0.119131,-0.2333"
       id="path1499"
       inkscape:connector-curvature="0" />
    <path
       style="fill:none;stroke:#000000;stroke-width:0.12;stroke-linecap:butt;stroke-linejoin:miter;stroke-miterlimit:4;stroke-dasharray:none;stroke-opacity:1"
       d="m 13.018964,144.21726 c 0.09623,-0.10065 0.114548,-0.23331 0.114548,-0.23331"
       id="path1501"
       inkscape:connector-curvature="0" />
    <path
       style="fill:none;stroke:#000000;stroke-width:0.12;stroke-linecap:butt;stroke-linejoin:round;stroke-miterlimit:4;stroke-dasharray:none;stroke-opacity:1"
       d="m 14.297335,144.17609 c -0.01374,0.0777 0.02749,0.19214 0.02749,0.19214 l 0.06873,0.0961 c 0,0 0.02291,0.0228 0.0504,0.0274 0.0275,0.005 0.09623,0.005 0.09623,0.005 l 0.0779,-0.005 0.03666,-0.009 c 0,0 -0.0045,0.009 0.01833,-0.005 0.02291,-0.0137 0.0504,-0.0412 0.05498,-0.064 0.0045,-0.0228 0.0045,-0.0458 0,-0.0961 -0.0045,-0.0503 0.01374,-0.10979 -0.02749,-0.16012 -0.04124,-0.0503 -0.11455,-0.14638 -0.155787,-0.1418 -0.04124,0.005 -0.146624,0.0228 -0.174116,0.0458 -0.02749,0.0228 -0.08247,0.0869 -0.07331,0.11437 z"
       id="path1507"
       inkscape:connector-curvature="0" />
    <path
       style="fill:none;stroke:#000000;stroke-width:0.12;stroke-linecap:butt;stroke-linejoin:miter;stroke-miterlimit:4;stroke-dasharray:none;stroke-opacity:1"
       d="m 14.416466,144.2813 c 0.08706,-0.0594 0.109968,-0.15095 0.109968,-0.15095"
       id="path1509"
       inkscape:connector-curvature="0" />
    <path
       style="fill:none;stroke:#000000;stroke-width:0.12;stroke-linecap:butt;stroke-linejoin:miter;stroke-miterlimit:4;stroke-dasharray:none;stroke-opacity:1"
       d="m 14.558507,144.3911 c 0.09164,-0.0824 0.137459,-0.23331 0.137459,-0.23331"
       id="path1511"
       inkscape:connector-curvature="0" />
    <path
       style="fill:none;stroke:#000000;stroke-width:0.12;stroke-linecap:butt;stroke-linejoin:miter;stroke-miterlimit:4;stroke-dasharray:none;stroke-opacity:1"
       d="m 13.862047,145.02239 c 0.114549,-0.0319 0.192442,-0.12808 0.192442,-0.12808"
       id="path1513"
       inkscape:connector-curvature="0" />
    <path
       style="fill:none;stroke:#000000;stroke-width:0.12;stroke-linecap:butt;stroke-linejoin:miter;stroke-miterlimit:4;stroke-dasharray:none;stroke-opacity:1"
       d="m 14.022417,145.11846 c 0.137458,-0.0503 0.201607,-0.13724 0.201607,-0.13724"
       id="path1515"
       inkscape:connector-curvature="0" />
    <path
       style="fill:none;stroke:#000000;stroke-width:0.12;stroke-linecap:butt;stroke-linejoin:miter;stroke-miterlimit:4;stroke-dasharray:none;stroke-opacity:1"
       d="m 14.315662,145.16422 c 0.09623,-0.0824 0.11455,-0.183 0.11455,-0.183"
       id="path1517"
       inkscape:connector-curvature="0" />
    <path
       style="fill:none;stroke:#000000;stroke-width:0.12;stroke-linecap:butt;stroke-linejoin:miter;stroke-miterlimit:4;stroke-dasharray:none;stroke-opacity:1"
       d="m 14.47145,145.23283 c 0.100803,-0.0915 0.119131,-0.18757 0.119131,-0.18757"
       id="path1519"
       inkscape:connector-curvature="0" />
    <path
       style="fill:none;stroke:#000000;stroke-width:0.12;stroke-linecap:butt;stroke-linejoin:round;stroke-miterlimit:4;stroke-dasharray:none;stroke-opacity:1"
       d="m 12.938513,145.43335 c -0.02753,0.0161 -0.03564,0.0194 -0.04212,0.0518 -0.0064,0.0324 -0.01458,0.0728 -0.0016,0.0987 0.01296,0.0258 0.04212,0.0485 0.09396,0.0792 0.05184,0.0306 0.140938,0.10027 0.202497,0.11322 0.06156,0.0129 0.09234,0.0276 0.144178,0.0209 0.05184,-0.007 0.100438,-0.01 0.144177,0.0129 0.04374,0.0226 0.05994,0.0469 0.105298,0.0453 0.04535,-0.002 0.08424,-0.0146 0.173337,-0.0453 0.08909,-0.0308 0.150658,-0.0453 0.168478,-0.068 0.01782,-0.0226 0.01458,-0.0711 0.0032,-0.14071 -0.01134,-0.0696 -0.0064,-0.11483 -0.05022,-0.13909 -0.04374,-0.0243 -0.118257,-0.0615 -0.186297,-0.0759 -0.06804,-0.0146 -0.176577,-0.0114 -0.249475,-0.0453 -0.07291,-0.034 -0.08909,-0.0857 -0.181438,-0.089 -0.09234,-0.003 -0.137697,-0.0145 -0.158757,0.0129 -0.02106,0.0276 -0.0081,0.0518 -0.0486,0.0954 -0.04049,0.0438 -0.116638,0.0711 -0.116638,0.0728 z"
       id="path1523"
       inkscape:connector-curvature="0" />
    <path
       style="fill:none;stroke:#000000;stroke-width:0.12;stroke-linecap:butt;stroke-linejoin:miter;stroke-miterlimit:4;stroke-dasharray:none;stroke-opacity:1"
       d="m 13.850593,145.16879 c 0.162659,0.0984 0.130585,0.0984 0.187859,0.10979 0.05728,0.0115 0.09164,-0.0206 0.153497,-0.007 0.06186,0.0136 0.0779,0.048 0.151206,0.0594 0.07331,0.0115 0.06873,0.016 0.162659,-0.009 0.09393,-0.0251 0.20848,-0.0367 0.222226,-0.0754 0.01374,-0.0389 0.03666,-0.16469 0.0092,-0.21273 -0.02749,-0.0481 -0.02978,-0.12122 -0.164951,-0.13952 -0.135169,-0.0182 -0.252008,-0.0251 -0.359686,-0.0754 -0.107675,-0.0503 -0.190151,-0.0938 -0.240553,-0.0618 -0.0504,0.0321 -0.01604,0.0572 -0.09851,0.11666 -0.08247,0.0594 -0.171824,0.0663 -0.151205,0.13495 0.02061,0.0686 -0.0092,0.0777 0.05728,0.11894 z"
       id="path1525"
       inkscape:connector-curvature="0" />
  </g>
</svg>
